# xmcd
#
# Track frame offsets:
#	150
#	10280
#	26652
#	39197
#	53284
#	70435
#	80943
#	95604
#	118092
#	130081
#	144437
#
# Disc length: 2218 seconds
#
# Revision: 1
# Processed by: cddbd v1.5.2PL0 Copyright (c) Steve Scherf et al.
# Submitted via: audiograbber 1.83.01
#
DISCID=9008a80b
DTITLE=Faith Hill - Joy To The World
DYEAR=2008
DGENRE=Christmas
TTITLE0=Joy To The World
TTITLE1=What Child Is This
TTITLE2=Santa Claus Is Comin To Town
TTITLE3=Little Drummer Boy
TTITLE4=O Come, All Ye Faithful
TTITLE5=Holly Jolly Christmas
TTITLE6=Away In A Manger
TTITLE7=O Holy Night
TTITLE8=Winter Wonderland
TTITLE9=Silent Night
TTITLE10=A Baby Changes Everything
EXTD=
EXTT0=
EXTT1=
EXTT2=
EXTT3=
EXTT4=
EXTT5=
EXTT6=
EXTT7=
EXTT8=
EXTT9=
EXTT10=
PLAYORDER=
